<svg width="114" height="17" viewBox="0 0 114 17" fill="none" xmlns="http://www.w3.org/2000/svg">
<path d="M1.13392 8.36736V8.24921C1.13392 8.10152 1.63604 7.89475 1.93141 7.86521C2.61076 7.7766 1.75419 7.71753 2.43354 7.42216C2.55169 7.36308 1.90188 7.12681 1.13392 7.18588C0.809012 7.21542 0.484101 7.09727 0.484101 6.89051C0.484101 6.62468 0.277346 6.65422 0.247809 6.59514C0.12966 6.32931 1.34068 6.41789 1.37021 6.27021C2.25632 2.87345 5.29864 0.510483 9.04984 0.510483C12.358 0.510483 14.5733 2.1055 15.8138 4.40939L11.6786 6.83142C11.0879 5.73855 10.3199 5.00013 8.96124 5.00013C7.92744 5.00013 7.10039 5.56132 6.6278 6.41789C6.53919 6.56558 5.5054 6.38838 5.5054 6.89051C5.5054 7.0382 5.74169 7.03817 5.8303 7.15632C5.91891 7.27446 5.91891 7.39263 6.06659 7.39263C6.48011 7.39263 6.98224 7.4517 6.86409 7.688C6.83456 7.74707 6.80502 7.83568 6.77549 7.86521C6.59826 8.0129 6.21428 8.0129 6.21428 8.30827V8.3378C6.21428 10.2872 7.36622 11.646 9.02029 11.646C10.4381 11.646 11.2356 10.878 11.8559 9.75559L15.991 12.089C14.721 14.3043 12.6238 16.1356 8.93169 16.1356C4.73743 16.106 1.13392 13.0047 1.13392 8.36736Z" fill="black"/>
<path d="M29.7848 8.36738C29.7258 8.33785 29.6667 8.13108 29.5485 8.10154C29.3418 8.07201 29.4895 7.80616 29.3122 7.71755C29.1941 7.62894 29.1055 7.62894 29.0464 7.54033C28.9873 7.45172 28.7215 7.42218 28.7215 7.39265C28.7215 7.30404 29.0169 7.24497 29.1646 7.21543C29.3122 7.18589 29.4009 7.09729 29.3713 7.03822C28.9578 5.8272 27.8945 4.882 26.4471 4.882C25.0589 4.882 24.0546 5.70902 23.6116 6.86097C23.523 7.06772 22.371 7.30404 22.312 7.5108C22.2529 7.7471 23.139 7.56988 23.1095 7.95386C23.0799 8.21969 23.5821 8.10154 23.523 8.27876C23.4934 8.39691 23.7593 8.3969 23.907 8.45597C24.1137 8.51505 24.3205 8.57414 24.3205 8.66275C24.3205 8.81044 23.4344 8.72181 23.4048 9.01718C23.7002 10.4645 24.8226 11.646 26.4767 11.646C27.8945 11.646 28.8987 10.7894 29.3418 9.60792C29.4009 9.46024 29.5781 9.10581 29.8144 9.10581C29.9325 9.10581 30.346 9.04671 30.3756 8.92856C30.3756 8.83995 30.1393 8.72182 29.9916 8.69228C29.8734 8.72182 29.903 8.48553 29.7848 8.36738ZM18.5903 8.4855C18.4131 8.19013 18.9152 8.01292 19.2401 7.86523C19.565 7.71755 17.8519 7.95384 17.97 7.45171C18.0586 7.09726 17.3202 7.27449 17.3202 7.12681C17.2907 6.94958 18.4426 6.74282 18.4721 6.5656C19.2696 3.08022 22.4892 0.480972 26.4767 0.480972C30.6119 0.480972 33.861 3.1984 34.5108 6.89053C34.5108 6.92007 34.4812 6.94958 34.4221 7.00865C34.3926 7.03819 34.1859 7.03821 34.1563 7.06775C34.0972 7.09728 34.2154 7.15634 34.1563 7.15634C33.8019 7.21541 33.3293 7.12681 33.2997 7.27449C33.2702 7.3631 33.536 7.39266 33.7133 7.48127C33.861 7.56988 33.9496 7.68801 34.0972 7.71755C34.3335 7.74708 34.0382 8.13107 34.6289 8.27876C34.6289 8.27876 34.9538 8.30831 35.0129 8.36738C35.1015 8.45599 35.5741 8.57414 35.5741 8.69228C35.5741 8.83997 34.5994 8.95812 34.5994 9.10581C34.1859 13.0638 30.7891 16.1061 26.4471 16.1061C22.312 16.1061 19.0629 13.3887 18.4131 9.69655C18.354 9.37164 18.3245 9.04672 18.2949 8.72181C18.2949 8.60367 18.6494 8.60365 18.5903 8.4855Z" fill="black"/>
<path d="M45.2918 7.95385C45.469 7.95385 45.6462 7.95386 45.7939 7.92432C45.8825 7.92432 45.8825 7.86524 45.9711 7.8357C46.0597 7.80616 46.2074 7.83571 46.2665 7.80617C46.3256 7.77663 46.3846 7.74708 46.4437 7.71754C46.4733 7.71754 46.3551 7.68802 46.3846 7.65848C46.4142 7.65848 46.5914 7.62895 46.621 7.62895C46.68 7.59942 46.5619 7.56987 46.621 7.5108C46.6505 7.48126 46.8572 7.45171 46.8868 7.42217C46.9163 7.39264 46.5619 7.36312 46.5914 7.33358C46.6209 7.30405 46.7686 7.30402 46.8277 7.30402C46.8572 7.30402 46.7096 7.24496 46.7391 7.24496C46.7686 7.24496 46.9163 7.21543 46.9459 7.1859C47.0049 7.12682 47.0935 7.12681 47.1231 7.09727C47.1526 7.0382 47.0345 7.00867 47.0345 6.92006C47.064 6.86098 46.7686 6.83144 46.7982 6.8019C46.7982 6.74283 47.2412 6.68375 47.2412 6.65422C47.2412 6.59514 47.2412 6.56561 47.2412 6.50653V6.477C47.2412 5.50228 46.5028 5.05921 45.3508 5.05921H43.1651V6.62469C43.1651 6.65422 43.1947 6.68375 43.2242 6.68375C43.2537 6.80189 42.3676 6.74282 42.4267 6.83143C42.4562 6.86097 42.5153 6.89052 42.5153 6.92006C42.5744 6.97913 42.6039 7.00868 42.663 7.03821C42.8107 7.09729 42.8993 7.09726 42.8993 7.15633C42.8993 7.21541 42.663 7.24494 42.6925 7.30402C42.7221 7.36309 42.7811 7.3631 42.8402 7.42217C42.8697 7.45171 42.9288 7.48126 42.9288 7.5108C42.8402 7.56987 42.9879 7.59942 43.0174 7.62895C43.047 7.65849 43.0765 7.68801 43.0765 7.68801C43.106 7.71755 42.8993 7.7471 42.8993 7.77664C42.8993 7.83571 43.1356 7.86525 43.1356 7.92432C43.1356 7.95386 43.1356 7.98338 43.1356 7.98338H45.2918V7.95385ZM38.1143 0.835434H45.4099C48.0683 0.835434 49.7519 1.48523 50.7857 2.54856C51.7013 3.46421 52.1444 4.55708 52.1444 6.09301V6.12254C52.1444 6.15207 52.1444 6.21115 52.1444 6.27022V6.29979C52.0853 6.32932 52.1444 6.32932 52.1444 6.32932C52.1148 6.35885 52.1148 6.38837 52.1148 6.41791C52.1148 6.47698 51.849 6.47698 51.6423 6.56559C51.4355 6.6542 51.1992 6.6542 51.1992 6.71328C51.1992 6.80189 51.9081 6.83144 51.9081 6.94959C51.9081 7.09727 52.0558 7.09727 52.0262 7.24496C52.0262 7.27449 51.849 7.39264 51.849 7.42217C51.9376 7.51078 51.5536 7.54031 51.5241 7.59939C51.5241 7.65846 51.9672 7.65847 51.9672 7.71754C51.9672 7.74708 51.9672 7.7471 51.9376 7.77664C51.9081 7.83571 51.1696 7.92431 51.1696 7.98338C51.1401 8.04246 51.7013 8.07199 51.7013 8.13107C51.7013 8.16061 51.8195 8.19016 51.7899 8.21969C51.7604 8.27877 51.465 8.30828 51.4946 8.33781C51.5241 8.36735 51.6718 8.3969 51.7013 8.42644C51.7308 8.45598 51.9376 8.45599 51.9672 8.51506C51.9967 8.57414 52.4397 8.57411 52.4397 8.63318C52.4102 8.66272 51.9672 8.66274 51.8785 8.69228C51.7899 8.72182 51.6127 8.81043 51.5536 8.83996C51.5241 8.8695 51.5536 8.92858 51.5241 8.95812C51.4059 9.01719 51.3173 9.07626 51.2878 9.13533C51.1401 9.34209 50.9629 9.54885 50.7561 9.72608C50.3426 10.1396 49.8405 10.4645 49.2497 10.7303L52.7351 15.8107H47.0345L44.1989 11.5278H43.1356V15.8107H38.1438V9.75561C38.1438 9.75561 38.1438 9.57838 38.1438 9.48977C38.1438 9.22393 38.2915 9.31254 38.321 9.22392C38.3506 9.13531 38.6459 9.07625 38.6755 9.04671C38.7346 8.98764 38.4983 8.95811 38.4983 8.86949C38.4983 8.69227 38.8232 8.69226 38.7936 8.63318C38.7641 8.51504 39.1481 8.51505 39.1481 8.42644C39.1481 8.36736 38.6164 8.36736 38.705 8.30828C38.7936 8.24921 39.5911 8.19014 39.5911 8.13107C39.5911 8.07199 38.4096 8.04245 38.4096 8.01291C38.4096 7.98338 38.5278 7.95385 38.5278 7.95385C38.5278 7.95385 38.2915 7.92429 38.2915 7.89476C38.2915 7.83568 38.4983 7.77662 38.4983 7.71754C38.4983 7.65847 38.1734 7.59939 38.1734 7.56986C38.1143 7.48125 37.7008 7.54031 37.6712 7.30402C37.6712 7.24494 37.4645 7.21543 37.4054 7.1859C37.3463 7.12682 37.2872 7.12681 37.2872 7.09727C37.2872 6.97912 37.9666 6.94958 38.0552 6.83143C38.0847 6.80189 38.262 6.80191 38.262 6.77237C38.262 6.74283 38.1734 6.74281 38.1734 6.71328C38.1438 6.6542 38.1438 6.56559 38.1438 6.56559V0.835434H38.1143Z" fill="black"/>
<path d="M60.5624 5.17736V5.91579C60.5624 5.91579 60.5624 5.94531 60.5624 5.97485C60.5624 6.00439 60.4738 6.03394 60.4443 6.06348C60.3852 6.09301 60.3261 6.15209 60.208 6.18163C60.0603 6.21117 59.7649 6.27023 59.7649 6.35885C59.7649 6.38838 59.9717 6.41793 60.1194 6.477C60.2966 6.56561 60.4443 6.50655 60.4443 6.59516C60.4443 6.7133 59.8536 6.65422 59.8536 6.77237C59.8536 6.83145 59.9126 6.89052 60.1489 6.92006C60.3261 6.94959 60.6215 7.00866 60.5624 7.09727C60.5034 7.15635 60.3557 7.12681 60.2671 7.24496C60.1785 7.33357 59.824 7.36309 59.8536 7.4517C59.9126 7.62892 60.6806 7.62895 60.6806 7.80617C60.6806 7.86524 61.1827 7.95383 61.1236 8.04244C61.0941 8.13105 60.6806 8.16062 60.7101 8.21969C60.7692 8.27877 60.8578 8.2492 61.0055 8.33781C61.1532 8.42642 61.3304 8.39689 61.3009 8.4855C61.2713 8.54457 60.6806 8.54459 60.5624 8.69228C60.5329 8.72182 60.5329 8.83996 60.5329 8.83996V9.01718V11.4688H61.3599C63.5457 11.4688 64.9635 10.6417 65.1111 8.72181C65.1111 8.69227 65.1111 8.66272 65.1111 8.63318C65.1111 8.57411 65.1111 8.51504 65.1111 8.45597C65.1111 8.42643 65.1111 8.39692 65.1407 8.36738C65.1702 8.30831 65.377 8.33783 65.436 8.27875C65.4656 8.24922 65.4951 8.24923 65.5247 8.21969C65.5542 8.19016 65.6723 8.19014 65.7019 8.1606C65.7314 8.1606 65.6724 8.13107 65.6724 8.13107C65.7019 8.10153 65.7905 8.10152 65.7905 8.04244C65.7905 7.98337 65.7019 7.95383 65.6724 7.89476C65.6133 7.77661 65.4951 7.74708 65.4065 7.71754C65.1111 7.59939 65.7019 7.62895 65.7019 7.5108C65.7019 7.48126 65.5837 7.42217 65.5542 7.42217C65.5247 7.39264 65.4065 7.39265 65.377 7.36311C65.3474 7.36311 65.377 7.33355 65.377 7.30402C65.3179 7.27448 65.2884 7.27449 65.2884 7.24496C65.2588 7.12681 64.993 7.15636 64.9339 7.03821C64.9339 7.00868 64.8748 6.97912 64.8453 6.94959C64.8158 6.92005 64.609 6.92006 64.5795 6.89053C64.5499 6.86099 64.6976 6.83144 64.6681 6.8019C64.6385 6.77236 64.6386 6.77238 64.6386 6.74284C64.609 6.62469 64.0774 6.68377 64.0478 6.59516C63.9887 6.41793 64.6681 6.44747 64.5204 6.29979C64.4613 6.24071 64.4022 6.15208 64.3136 6.09301C63.6638 5.47273 62.6596 5.20689 61.3895 5.20689H60.5624V5.17736ZM55.5411 0.835434H61.2713C66.1745 0.835434 69.0396 2.81442 69.8961 6.00442C69.8961 6.06349 69.9257 6.12256 69.9257 6.1521C69.9257 6.18164 69.8371 6.21115 69.7189 6.27022C69.5712 6.35883 69.3349 6.35883 69.3349 6.41791C69.3349 6.47698 69.6303 6.50652 69.7485 6.53606C69.8371 6.5656 69.9257 6.59514 69.9257 6.68375C69.9257 6.74282 69.778 6.77235 69.778 6.86096C69.8075 6.94957 70.0438 7.00866 70.0438 7.09727C70.0734 7.18588 69.6894 7.18588 69.6894 7.27449C69.6894 7.30402 69.8961 7.27449 69.9552 7.42217C69.9848 7.51078 70.1029 7.54032 70.1029 7.56986C70.1029 7.59939 69.9552 7.59942 69.9552 7.62895C69.9552 7.65849 70.1324 7.68801 70.1324 7.71754C70.1324 7.74708 70.2801 7.74709 70.3687 7.80617C70.4869 7.86524 70.6641 7.86522 70.6641 7.89476C70.6641 7.98337 70.1324 8.04246 70.1324 8.10154C70.1324 8.13108 70.3687 8.13105 70.3097 8.19013C70.2801 8.21967 70.1915 8.19016 70.162 8.21969C70.1324 8.27877 70.1324 8.33783 70.1324 8.39691C70.1324 8.51506 70.1324 8.66272 70.1029 8.78087C69.8666 12.9161 66.8243 15.7812 61.035 15.7812H55.4821V8.86949C55.4821 8.86949 55.4525 8.78087 55.4821 8.78087C55.6002 8.69226 55.8365 8.69228 56.1023 8.69228C56.3091 8.69228 56.2796 8.63319 56.4272 8.60365C56.4863 8.60365 56.6931 8.5446 56.7226 8.51506C56.7522 8.51506 57.018 8.48551 57.018 8.45597C57.018 8.36736 56.7522 8.36735 56.6931 8.33781C56.4568 8.2492 56.5454 8.19013 56.1614 8.19013C56.1023 8.19013 55.9842 8.19014 55.9251 8.1606C55.8661 8.13106 55.6593 8.13108 55.6593 8.10154C55.6593 8.072 55.5116 8.07198 55.5116 8.04244C55.5116 8.01291 55.807 7.95386 55.7774 7.92432C55.7774 7.89479 55.423 7.89477 55.423 7.8357C55.423 7.77662 55.5411 7.77661 55.5707 7.74707C55.6298 7.688 55.7184 7.65847 55.7184 7.56986C55.7184 7.48125 55.4525 7.51078 55.423 7.4517C55.3935 7.42217 55.3935 7.33355 55.3935 7.30402C55.3639 7.24494 55.3344 7.24497 55.2162 7.1859C55.1867 7.15636 55.039 7.21541 54.9209 7.1268C54.8618 7.09726 54.655 7.09729 54.655 7.03821C54.655 6.97914 55.3639 6.92006 55.3048 6.89053C55.2753 6.86099 54.9504 6.86098 54.9504 6.8019C54.9504 6.71329 55.2162 6.71328 55.2162 6.68375C55.2162 6.5656 54.7732 6.65421 54.7141 6.53606C54.6846 6.47699 54.3301 6.47698 54.3301 6.41791C54.3301 6.29976 54.7141 6.29976 54.8027 6.24069C54.8913 6.18162 55.3048 6.12256 55.3639 6.03395C55.3935 6.00441 55.3935 5.88626 55.3935 5.88626V0.835434H55.5411Z" fill="black"/>
<path d="M73.7359 0.835434H78.7277V6.21116C78.7277 6.38838 78.6096 6.53608 78.4619 6.59516C78.3142 6.65423 78.0484 6.74282 78.0188 6.83143C78.0188 6.86097 78.0484 6.92005 78.0779 6.94959C78.1074 6.97912 78.196 6.97911 78.2256 7.00865C78.2551 7.03818 78.2256 7.03821 78.2551 7.06774C78.2846 7.09728 78.3142 7.09726 78.3437 7.1268C78.4914 7.21541 78.58 7.21542 78.6391 7.39264C78.6686 7.42218 78.9049 7.54031 78.9049 7.59939C78.9049 7.71754 78.4323 7.71754 78.4619 7.74707C78.4914 7.77661 78.6982 7.86523 78.7572 7.86523C78.7868 7.89476 79.0231 7.92432 79.0821 7.92432C79.3184 8.01293 79.6138 8.13107 79.6138 8.27875C79.6138 8.36736 79.5252 8.3969 79.4071 8.42644C79.348 8.45598 79.0526 8.4855 78.9935 8.4855C78.9345 8.51504 79.1412 8.51506 79.0821 8.54459C78.964 8.57413 78.8458 8.60368 78.7868 8.66275C78.7572 8.69229 78.7277 8.86949 78.7277 8.86949V9.16486V15.8107H73.7359V8.86949V8.78087C73.7359 8.69226 73.795 8.63319 73.8541 8.60365C74.0018 8.57412 74.2676 8.48551 74.2971 8.42644C74.3267 8.36736 74.0904 8.24923 73.9722 8.21969C73.7655 8.16062 73.795 8.04246 73.9427 7.98338C74.0313 7.92431 74.4153 7.77662 74.3858 7.71754C74.2972 7.51078 73.9722 7.51078 73.8541 7.4517C73.7359 7.39263 73.6178 7.42217 73.6178 7.27449C73.6178 7.18588 73.8836 7.15635 73.8836 7.09727C73.8836 7.06773 73.8836 7.03819 73.8541 6.97912C73.8245 6.94958 73.9132 6.92006 73.8836 6.89053C73.8541 6.86099 73.7359 6.83144 73.7064 6.8019C73.6769 6.77236 73.6178 6.74281 73.5883 6.71328C73.4701 6.6542 72.9384 6.68374 72.968 6.56559C72.968 6.50652 73.1157 6.53608 73.1747 6.477C73.2929 6.35885 73.5883 6.32929 73.6473 6.27022C73.6769 6.24068 73.7064 6.12254 73.7064 6.12254V6.03395V0.835434H73.7359Z" fill="black"/>
<path d="M91.6354 10.2282L91.0151 8.5446L90.9856 8.45598C90.9856 8.45598 90.9265 8.33783 91.1037 8.30829C91.281 8.27875 91.2219 8.27877 91.1037 8.24923C91.0447 8.21969 90.956 8.24924 90.956 8.2197C90.956 8.19016 90.956 8.16061 90.956 8.13107C90.956 8.13107 90.897 8.10155 90.9265 8.10155C90.9265 8.10155 90.9265 8.07202 90.897 8.07202C90.8674 8.07202 90.8379 8.04245 90.8379 8.04245C90.8379 8.01291 90.897 7.95387 90.897 7.92433C90.897 7.89479 90.9561 7.86524 90.9265 7.8357C90.897 7.80617 90.7788 7.77662 90.7788 7.74708C90.7493 7.688 90.8379 7.6585 90.7788 7.62896C90.7788 7.62896 90.7198 7.5994 90.7198 7.56986C90.6902 7.54033 90.6311 7.54034 90.6311 7.5108C90.6016 7.48127 90.7493 7.48125 90.7788 7.45171C90.8084 7.42217 90.6311 7.39266 90.6016 7.36312C90.5721 7.33358 90.5721 7.30402 90.5425 7.30402C90.4244 7.30402 90.2176 7.27449 90.2176 7.27449C90.2176 7.27449 90.3948 7.27451 90.4539 7.21543C90.4834 7.1859 90.6016 7.21541 90.5425 7.15634L90.513 7.06775L90.4835 7.00865L90.3358 6.59516L90.1881 6.94959C90.1881 6.97913 90.1585 7.00868 90.129 7.03822C90.0995 7.06776 90.0699 7.09727 90.0699 7.12681C90.0699 7.15635 89.9813 7.1859 89.9222 7.1859C89.8632 7.21544 89.745 7.21543 89.686 7.24496C89.5383 7.30404 89.3906 7.27452 89.3906 7.33359C89.3906 7.36313 89.4497 7.39264 89.6269 7.42218C89.745 7.42218 89.745 7.5108 89.8041 7.5108C89.8927 7.5108 89.9222 7.56986 89.8632 7.56986C89.8041 7.56986 89.7155 7.62895 89.686 7.65849C89.686 7.68803 89.8336 7.68801 89.8632 7.71755C89.8927 7.74709 89.7746 7.7471 89.7746 7.80617C89.7746 7.83571 89.8632 7.89476 89.8927 7.89476C90.0995 7.9243 90.0109 7.98338 89.8927 8.01292C89.8927 8.01292 89.8632 8.04248 89.8927 8.07202L90.0404 8.10155L89.9222 8.13107C89.9222 8.16061 89.9222 8.1606 89.9222 8.1606C89.9222 8.19014 90.0404 8.19016 90.0995 8.2197C90.1881 8.24924 90.3062 8.24922 90.3062 8.30829C90.3062 8.36736 89.8927 8.30831 89.7155 8.36739L89.686 8.42645L89.6564 8.48551L88.9771 10.2577H91.6354V10.2282ZM87.8547 0.717285H92.8169L95.2094 6.44748L95.2389 6.53607C95.298 6.65422 95.2389 6.77237 95.1208 6.80191C95.0617 6.83145 94.9435 6.861 94.8549 6.89053C94.6186 6.94961 94.2937 6.97912 94.3233 7.12681C94.3233 7.18588 94.4119 7.1859 94.471 7.21543C94.53 7.24497 94.5596 7.27449 94.6482 7.27449C95.0912 7.24496 94.7368 7.39265 94.8845 7.39265C94.9435 7.39265 95.2094 7.42217 95.2684 7.45171C95.3275 7.48125 95.1208 7.51079 95.1798 7.56986C95.2094 7.5994 95.5343 7.59942 95.5343 7.62896C95.5638 7.71757 95.9183 7.71756 95.9478 7.80617C95.9773 7.89479 95.4161 8.01294 95.5048 8.07202C95.5638 8.10155 95.8297 8.04246 96.0659 8.13107C96.2432 8.19015 96.3909 8.1606 96.3909 8.19013C96.4204 8.21967 96.0955 8.27877 96.0364 8.39692C96.0364 8.42645 96.0955 8.51507 96.0955 8.51507L96.125 8.60366L99.1378 15.8107H93.703L92.9055 13.8022H87.6774L86.9095 15.8107H81.5633L84.4579 8.8695C84.4579 8.8695 84.5465 8.75135 84.5761 8.72182C84.7237 8.6332 85.0486 8.75135 85.344 8.60366C85.4917 8.54459 86.4369 8.66275 86.4664 8.5446C86.4664 8.39692 85.4326 8.51507 85.344 8.36739C85.3145 8.33785 85.9643 8.27876 85.9938 8.27876C86.0529 8.24922 85.5803 8.2197 85.6394 8.2197C85.8461 8.13109 86.0529 8.16063 86.0824 8.07202C86.112 8.01294 85.4326 7.9834 85.4622 7.92433C85.4917 7.86526 85.5212 7.80618 85.4326 7.77664C85.2849 7.74711 85.1077 7.71756 85.1372 7.68802C85.2849 7.56987 85.6689 7.59941 85.6394 7.54033C85.5803 7.42219 84.7828 7.45171 84.7237 7.30402C84.6647 7.15634 84.2511 7.1859 84.2511 7.06775C84.2511 6.97914 84.6056 6.97914 84.7828 6.89053C84.9009 6.83146 85.0191 6.80191 85.1077 6.80191C85.2259 6.80191 85.3145 6.71331 85.3735 6.59516L85.4326 6.44748L87.8547 0.717285Z" fill="black"/>
<path d="M106.877 11.4983V8.83996C106.877 8.83996 106.877 8.66272 106.936 8.63318C106.995 8.5741 107.113 8.5446 107.231 8.51506C107.29 8.48552 107.083 8.4855 107.142 8.45596C107.201 8.42643 107.497 8.3969 107.556 8.3969C107.674 8.36737 107.733 8.33783 107.763 8.24922C107.763 8.10153 107.497 7.98336 107.231 7.89475C107.172 7.86521 106.965 7.86523 106.906 7.83569C106.906 7.83569 106.877 7.8357 106.877 7.80616C106.817 7.77663 106.64 7.71754 106.611 7.68801C106.581 7.65847 106.729 7.65848 106.877 7.65848C106.995 7.62894 107.083 7.59939 107.083 7.56985C107.083 7.54031 106.965 7.48124 106.877 7.42217C106.847 7.39263 106.817 7.39264 106.817 7.36311C106.758 7.21542 106.67 7.18588 106.522 7.09727C106.493 7.06773 106.463 7.06774 106.433 7.03821C106.404 7.00867 106.433 7.00865 106.404 6.97911C106.374 6.94957 106.286 6.94959 106.256 6.92005C106.227 6.89051 106.197 6.83143 106.197 6.8019C106.197 6.71328 106.463 6.62466 106.64 6.56559C106.788 6.50651 106.906 6.35885 106.906 6.18163V0.805862H101.914V6.03394V6.12253C101.914 6.12253 101.885 6.24068 101.855 6.27021C101.796 6.29975 101.648 6.3293 101.53 6.38837C101.501 6.38837 101.589 6.4179 101.589 6.4179C101.589 6.4179 101.471 6.44747 101.442 6.44747C101.383 6.50654 100.762 6.50651 100.703 6.56559C100.674 6.59512 100.762 6.59515 100.999 6.59515C101.028 6.59515 101.205 6.59515 101.264 6.59515C101.324 6.59515 101.264 6.62468 101.324 6.62468C101.56 6.62468 101.767 6.6542 101.826 6.68374C101.855 6.68374 101.885 6.74283 101.944 6.77237C101.973 6.8019 102.092 6.83142 102.121 6.86096C102.151 6.89049 102.062 6.92004 102.092 6.94958C102.121 6.97912 102.121 7.00866 102.121 7.06774C102.121 7.09727 102.032 7.12679 101.973 7.15633C101.914 7.18586 101.855 7.21541 101.855 7.24495C101.855 7.33356 101.914 7.36311 101.973 7.36311C102.003 7.36311 102.032 7.39264 102.092 7.39264C102.18 7.45171 102.535 7.45172 102.623 7.65848C102.653 7.71755 102.298 7.86524 102.18 7.92432C102.032 7.98339 102.003 8.10152 102.21 8.16059C102.357 8.19013 102.594 8.3083 102.535 8.36737C102.505 8.39691 102.239 8.48551 102.092 8.54459C102.003 8.57413 101.973 8.63319 101.973 8.7218V8.81043V15.7516H106.965H113.995V11.4688H106.877V11.4983Z" fill="black"/>
</svg>
